# xmcd
#
# Track frame offsets: 
#        150
#        21939
#        45956
#        64507
#        92359
#        112641
#        133051
#        152099
#        165599
#        185528
#        204891
#        224991
#        251649
#        275139
#        298961
#        317470
#        340282
#
# Disc length: 4730 seconds
#
# Revision: 0
# Processed by: cddbd v1.4PL0 Copyright (c) Steve Scherf et al.
# Submitted via: ExactAudioCopy v0.95a3
#
DISCID=f6127811
DTITLE=John Mayall&Friends - Along For The Ride
DYEAR=2001
DGENRE=Blues
TTITLE0=Along For The Ride
TTITLE1=If I Don't Get Home
TTITLE2=Early In The Morning
TTITLE3=So Many Roads
TTITLE4=A World Of Hurt
TTITLE5=Put It Right Back
TTITLE6=That's Why I Love You So
TTITLE7=Yo Yo Man
TTITLE8=Testify
TTITLE9=Something About My Baby
TTITLE10=World War Blues
TTITLE11=California
TTITLE12=She Don't Play By The Rules
TTITLE13=Sensitive Kind
TTITLE14=Jacksbord Highway
TTITLE15=I've Got To Talk To You
TTITLE16=Step In The Sun
EXTD=
EXTT0=
EXTT1=
EXTT2=
EXTT3=
EXTT4=
EXTT5=
EXTT6=
EXTT7=
EXTT8=
EXTT9=
EXTT10=
EXTT11=
EXTT12=
EXTT13=
EXTT14=
EXTT15=
EXTT16=
PLAYORDER=
